<svg xmlns="http://www.w3.org/2000/svg" width="18" height="18" viewBox="0 0 18 18" fill="none">
  <path d="M11.3948 8.49725L7.38564 4.49517C7.31979 4.42878 7.24145 4.37608 7.15513 4.34012C7.06881 4.30416 6.97623 4.28564 6.88272 4.28564C6.78921 4.28564 6.69663 4.30416 6.61031 4.34012C6.524 4.37608 6.44565 4.42878 6.37981 4.49517C6.24788 4.62788 6.17383 4.80741 6.17383 4.99454C6.17383 5.18167 6.24788 5.3612 6.37981 5.49392L9.88606 9.03558L6.37981 12.5418C6.24788 12.6746 6.17383 12.8541 6.17383 13.0412C6.17383 13.2283 6.24788 13.4079 6.37981 13.5406C6.44541 13.6075 6.52364 13.6608 6.60997 13.6972C6.6963 13.7337 6.78901 13.7527 6.88272 13.7531C6.97644 13.7527 7.06915 13.7337 7.15548 13.6972C7.24181 13.6608 7.32004 13.6075 7.38564 13.5406L11.3948 9.5385C11.4667 9.47217 11.5241 9.39167 11.5633 9.30206C11.6026 9.21246 11.6228 9.1157 11.6228 9.01788C11.6228 8.92005 11.6026 8.82329 11.5633 8.73369C11.5241 8.64408 11.4667 8.56358 11.3948 8.49725Z" fill="#0A0A0A"/>
</svg>