<svg xmlns="http://www.w3.org/2000/svg" width="24" height="25" viewBox="0 0 24 25" fill="none">
<path d="M21.7094 20.7904L17.9994 17.1104C19.4395 15.3148 20.1369 13.0357 19.9482 10.7417C19.7595 8.44769 18.6991 6.31318 16.9849 4.77704C15.2708 3.2409 13.0332 2.4199 10.7323 2.48286C8.43145 2.54582 6.24214 3.48795 4.61456 5.11553C2.98698 6.74311 2.04485 8.93243 1.98189 11.2333C1.91893 13.5342 2.73992 15.7718 4.27606 17.4859C5.8122 19.2001 7.94672 20.2605 10.2407 20.4492C12.5347 20.6379 14.8138 19.9405 16.6094 18.5004L20.2894 22.1804C20.3824 22.2741 20.493 22.3485 20.6148 22.3993C20.7367 22.4501 20.8674 22.4762 20.9994 22.4762C21.1314 22.4762 21.2621 22.4501 21.384 22.3993C21.5059 22.3485 21.6165 22.2741 21.7094 22.1804C21.8897 21.9939 21.9904 21.7447 21.9904 21.4854C21.9904 21.2261 21.8897 20.9769 21.7094 20.7904ZM10.9994 18.5004C9.61495 18.5004 8.26157 18.0899 7.11042 17.3207C5.95928 16.5515 5.06207 15.4583 4.53226 14.1792C4.00245 12.9001 3.86382 11.4926 4.13392 10.1348C4.40402 8.77689 5.0707 7.52961 6.04967 6.55065C7.02864 5.57168 8.27592 4.90499 9.63378 4.6349C10.9917 4.3648 12.3991 4.50342 13.6782 5.03324C14.9573 5.56305 16.0505 6.46026 16.8197 7.6114C17.5889 8.76255 17.9994 10.1159 17.9994 11.5004C17.9994 13.3569 17.2619 15.1374 15.9492 16.4501C14.6364 17.7629 12.8559 18.5004 10.9994 18.5004Z" fill="#888888"/>
<path d="M21.7094 20.7904L17.9994 17.1104C19.4395 15.3148 20.1369 13.0357 19.9482 10.7417C19.7595 8.44769 18.6991 6.31318 16.9849 4.77704C15.2708 3.2409 13.0332 2.4199 10.7323 2.48286C8.43145 2.54582 6.24214 3.48795 4.61456 5.11553C2.98698 6.74311 2.04485 8.93243 1.98189 11.2333C1.91893 13.5342 2.73992 15.7718 4.27606 17.4859C5.8122 19.2001 7.94672 20.2605 10.2407 20.4492C12.5347 20.6379 14.8138 19.9405 16.6094 18.5004L20.2894 22.1804C20.3824 22.2741 20.493 22.3485 20.6148 22.3993C20.7367 22.4501 20.8674 22.4762 20.9994 22.4762C21.1314 22.4762 21.2621 22.4501 21.384 22.3993C21.5059 22.3485 21.6165 22.2741 21.7094 22.1804C21.8897 21.9939 21.9904 21.7447 21.9904 21.4854C21.9904 21.2261 21.8897 20.9769 21.7094 20.7904ZM10.9994 18.5004C9.61495 18.5004 8.26157 18.0899 7.11042 17.3207C5.95928 16.5515 5.06207 15.4583 4.53226 14.1792C4.00245 12.9001 3.86382 11.4926 4.13392 10.1348C4.40402 8.77689 5.0707 7.52961 6.04967 6.55065C7.02864 5.57168 8.27592 4.90499 9.63378 4.6349C10.9917 4.3648 12.3991 4.50342 13.6782 5.03324C14.9573 5.56305 16.0505 6.46026 16.8197 7.6114C17.5889 8.76255 17.9994 10.1159 17.9994 11.5004C17.9994 13.3569 17.2619 15.1374 15.9492 16.4501C14.6364 17.7629 12.8559 18.5004 10.9994 18.5004Z" fill="black" fill-opacity="0.2"/>
</svg>