<svg xmlns="http://www.w3.org/2000/svg" width="24" height="25" viewBox="0 0 24 25" fill="none">
  <path d="M19 7.5H16V6.5C16 5.43913 15.5786 4.42172 14.8284 3.67157C14.0783 2.92143 13.0609 2.5 12 2.5C10.9391 2.5 9.92172 2.92143 9.17157 3.67157C8.42143 4.42172 8 5.43913 8 6.5V7.5H5C4.73478 7.5 4.48043 7.60536 4.29289 7.79289C4.10536 7.98043 4 8.23478 4 8.5V19.5C4 20.2956 4.31607 21.0587 4.87868 21.6213C5.44129 22.1839 6.20435 22.5 7 22.5H17C17.7956 22.5 18.5587 22.1839 19.1213 21.6213C19.6839 21.0587 20 20.2956 20 19.5V8.5C20 8.23478 19.8946 7.98043 19.7071 7.79289C19.5196 7.60536 19.2652 7.5 19 7.5ZM10 6.5C10 5.96957 10.2107 5.46086 10.5858 5.08579C10.9609 4.71071 11.4696 4.5 12 4.5C12.5304 4.5 13.0391 4.71071 13.4142 5.08579C13.7893 5.46086 14 5.96957 14 6.5V7.5H10V6.5ZM18 19.5C18 19.7652 17.8946 20.0196 17.7071 20.2071C17.5196 20.3946 17.2652 20.5 17 20.5H7C6.73478 20.5 6.48043 20.3946 6.29289 20.2071C6.10536 20.0196 6 19.7652 6 19.5V9.5H8V10.5C8 10.7652 8.10536 11.0196 8.29289 11.2071C8.48043 11.3946 8.73478 11.5 9 11.5C9.26522 11.5 9.51957 11.3946 9.70711 11.2071C9.89464 11.0196 10 10.7652 10 10.5V9.5H14V10.5C14 10.7652 14.1054 11.0196 14.2929 11.2071C14.4804 11.3946 14.7348 11.5 15 11.5C15.2652 11.5 15.5196 11.3946 15.7071 11.2071C15.8946 11.0196 16 10.7652 16 10.5V9.5H18V19.5Z" fill="#888888"/>
  <path d="M19 7.5H16V6.5C16 5.43913 15.5786 4.42172 14.8284 3.67157C14.0783 2.92143 13.0609 2.5 12 2.5C10.9391 2.5 9.92172 2.92143 9.17157 3.67157C8.42143 4.42172 8 5.43913 8 6.5V7.5H5C4.73478 7.5 4.48043 7.60536 4.29289 7.79289C4.10536 7.98043 4 8.23478 4 8.5V19.5C4 20.2956 4.31607 21.0587 4.87868 21.6213C5.44129 22.1839 6.20435 22.5 7 22.5H17C17.7956 22.5 18.5587 22.1839 19.1213 21.6213C19.6839 21.0587 20 20.2956 20 19.5V8.5C20 8.23478 19.8946 7.98043 19.7071 7.79289C19.5196 7.60536 19.2652 7.5 19 7.5ZM10 6.5C10 5.96957 10.2107 5.46086 10.5858 5.08579C10.9609 4.71071 11.4696 4.5 12 4.5C12.5304 4.5 13.0391 4.71071 13.4142 5.08579C13.7893 5.46086 14 5.96957 14 6.5V7.5H10V6.5ZM18 19.5C18 19.7652 17.8946 20.0196 17.7071 20.2071C17.5196 20.3946 17.2652 20.5 17 20.5H7C6.73478 20.5 6.48043 20.3946 6.29289 20.2071C6.10536 20.0196 6 19.7652 6 19.5V9.5H8V10.5C8 10.7652 8.10536 11.0196 8.29289 11.2071C8.48043 11.3946 8.73478 11.5 9 11.5C9.26522 11.5 9.51957 11.3946 9.70711 11.2071C9.89464 11.0196 10 10.7652 10 10.5V9.5H14V10.5C14 10.7652 14.1054 11.0196 14.2929 11.2071C14.4804 11.3946 14.7348 11.5 15 11.5C15.2652 11.5 15.5196 11.3946 15.7071 11.2071C15.8946 11.0196 16 10.7652 16 10.5V9.5H18V19.5Z" fill="black" fill-opacity="0.2"/>
</svg>