<svg xmlns="http://www.w3.org/2000/svg" width="24" height="25" viewBox="0 0 24 25" fill="none">
  <path d="M12.0005 2.5C10.061 2.50369 8.16442 3.07131 6.54177 4.13374C4.91911 5.19617 3.64043 6.70754 2.86148 8.48377C2.08252 10.26 1.83691 12.2244 2.15456 14.1378C2.47221 16.0511 3.33941 17.8308 4.65054 19.26C5.58696 20.275 6.72348 21.0851 7.98847 21.6392C9.25347 22.1933 10.6195 22.4793 12.0005 22.4793C13.3816 22.4793 14.7476 22.1933 16.0126 21.6392C17.2776 21.0851 18.4141 20.275 19.3505 19.26C20.6617 17.8308 21.5289 16.0511 21.8465 14.1378C22.1642 12.2244 21.9186 10.26 21.1396 8.48377C20.3606 6.70754 19.082 5.19617 17.4593 4.13374C15.8367 3.07131 13.9401 2.50369 12.0005 2.5ZM12.0005 20.5C9.929 20.4969 7.93945 19.6903 6.45054 18.25C6.90258 17.1495 7.67157 16.2083 8.65979 15.5459C9.64801 14.8835 10.8108 14.5298 12.0005 14.5298C13.1902 14.5298 14.3531 14.8835 15.3413 15.5459C16.3295 16.2083 17.0985 17.1495 17.5505 18.25C16.0616 19.6903 14.0721 20.4969 12.0005 20.5ZM10.0005 10.5C10.0005 10.1044 10.1178 9.71776 10.3376 9.38886C10.5574 9.05996 10.8697 8.80362 11.2352 8.65224C11.6006 8.50087 12.0028 8.46126 12.3907 8.53843C12.7787 8.6156 13.135 8.80608 13.4148 9.08579C13.6945 9.36549 13.8849 9.72186 13.9621 10.1098C14.0393 10.4978 13.9997 10.8999 13.8483 11.2654C13.6969 11.6308 13.4406 11.9432 13.1117 12.1629C12.7828 12.3827 12.3961 12.5 12.0005 12.5C11.4701 12.5 10.9614 12.2893 10.5863 11.9142C10.2113 11.5391 10.0005 11.0304 10.0005 10.5ZM18.9105 16.5C18.0171 14.9718 16.6419 13.783 15.0005 13.12C15.5097 12.5427 15.8415 11.8307 15.956 11.0694C16.0705 10.3082 15.963 9.53011 15.6463 8.8285C15.3296 8.12688 14.8171 7.53156 14.1704 7.11397C13.5238 6.69637 12.7703 6.47425 12.0005 6.47425C11.2307 6.47425 10.4773 6.69637 9.83063 7.11397C9.18395 7.53156 8.67151 8.12688 8.35479 8.8285C8.03807 9.53011 7.93052 10.3082 8.04507 11.0694C8.15961 11.8307 8.49137 12.5427 9.00054 13.12C7.35914 13.783 5.98401 14.9718 5.09054 16.5C4.37848 15.2871 4.00226 13.9065 4.00054 12.5C4.00054 10.3783 4.84339 8.34344 6.34368 6.84315C7.84397 5.34285 9.87881 4.5 12.0005 4.5C14.1223 4.5 16.1571 5.34285 17.6574 6.84315C19.1577 8.34344 20.0005 10.3783 20.0005 12.5C19.9988 13.9065 19.6226 15.2871 18.9105 16.5Z" fill="#888888"/>
  <path d="M12.0005 2.5C10.061 2.50369 8.16442 3.07131 6.54177 4.13374C4.91911 5.19617 3.64043 6.70754 2.86148 8.48377C2.08252 10.26 1.83691 12.2244 2.15456 14.1378C2.47221 16.0511 3.33941 17.8308 4.65054 19.26C5.58696 20.275 6.72348 21.0851 7.98847 21.6392C9.25347 22.1933 10.6195 22.4793 12.0005 22.4793C13.3816 22.4793 14.7476 22.1933 16.0126 21.6392C17.2776 21.0851 18.4141 20.275 19.3505 19.26C20.6617 17.8308 21.5289 16.0511 21.8465 14.1378C22.1642 12.2244 21.9186 10.26 21.1396 8.48377C20.3606 6.70754 19.082 5.19617 17.4593 4.13374C15.8367 3.07131 13.9401 2.50369 12.0005 2.5ZM12.0005 20.5C9.929 20.4969 7.93945 19.6903 6.45054 18.25C6.90258 17.1495 7.67157 16.2083 8.65979 15.5459C9.64801 14.8835 10.8108 14.5298 12.0005 14.5298C13.1902 14.5298 14.3531 14.8835 15.3413 15.5459C16.3295 16.2083 17.0985 17.1495 17.5505 18.25C16.0616 19.6903 14.0721 20.4969 12.0005 20.5ZM10.0005 10.5C10.0005 10.1044 10.1178 9.71776 10.3376 9.38886C10.5574 9.05996 10.8697 8.80362 11.2352 8.65224C11.6006 8.50087 12.0028 8.46126 12.3907 8.53843C12.7787 8.6156 13.135 8.80608 13.4148 9.08579C13.6945 9.36549 13.8849 9.72186 13.9621 10.1098C14.0393 10.4978 13.9997 10.8999 13.8483 11.2654C13.6969 11.6308 13.4406 11.9432 13.1117 12.1629C12.7828 12.3827 12.3961 12.5 12.0005 12.5C11.4701 12.5 10.9614 12.2893 10.5863 11.9142C10.2113 11.5391 10.0005 11.0304 10.0005 10.5ZM18.9105 16.5C18.0171 14.9718 16.6419 13.783 15.0005 13.12C15.5097 12.5427 15.8415 11.8307 15.956 11.0694C16.0705 10.3082 15.963 9.53011 15.6463 8.8285C15.3296 8.12688 14.8171 7.53156 14.1704 7.11397C13.5238 6.69637 12.7703 6.47425 12.0005 6.47425C11.2307 6.47425 10.4773 6.69637 9.83063 7.11397C9.18395 7.53156 8.67151 8.12688 8.35479 8.8285C8.03807 9.53011 7.93052 10.3082 8.04507 11.0694C8.15961 11.8307 8.49137 12.5427 9.00054 13.12C7.35914 13.783 5.98401 14.9718 5.09054 16.5C4.37848 15.2871 4.00226 13.9065 4.00054 12.5C4.00054 10.3783 4.84339 8.34344 6.34368 6.84315C7.84397 5.34285 9.87881 4.5 12.0005 4.5C14.1223 4.5 16.1571 5.34285 17.6574 6.84315C19.1577 8.34344 20.0005 10.3783 20.0005 12.5C19.9988 13.9065 19.6226 15.2871 18.9105 16.5Z" fill="black" fill-opacity="0.2"/>
</svg>